<?xml version="1.0" standalone="no"?>
<!DOCTYPE svg PUBLIC "-//W3C//DTD SVG 20010904//EN"
 "http://www.w3.org/TR/2001/REC-SVG-20010904/DTD/svg10.dtd">
<svg version="1.0" xmlns="http://www.w3.org/2000/svg"
 width="1280.000000pt" height="853.000000pt" viewBox="0 0 1280.000000 853.000000"
 preserveAspectRatio="xMidYMid meet">
<g transform="translate(0.000000,853.000000) scale(0.100000,-0.100000)"
fill="#ffffff" stroke="none">
<path d="M4638 6737 c-127 -54 -268 -184 -398 -367 -129 -181 -235 -387 -360
-695 -90 -225 -115 -274 -143 -284 -51 -19 -70 9 -143 210 -132 363 -267 574
-397 624 -45 17 -49 17 -65 1 -36 -36 -8 -241 83 -613 55 -224 64 -286 45
-298 -20 -12 -59 46 -194 295 -275 505 -479 819 -630 973 -40 40 -64 57 -82
57 -58 0 -352 -205 -521 -364 -183 -170 -206 -205 -205 -306 1 -152 99 -356
284 -586 81 -101 274 -296 406 -409 56 -48 101 -93 99 -99 -3 -8 -335 -12
-1210 -14 l-1207 -2 0 -500 0 -500 583 0 c644 -1 603 4 487 -63 -46 -27 -56
-37 -58 -63 -10 -105 170 -606 279 -774 65 -101 159 -137 333 -127 285 15 612
150 1090 448 105 66 205 122 223 125 76 14 81 -41 23 -242 -110 -381 -127
-615 -54 -740 42 -73 63 -69 123 22 57 87 142 266 241 509 79 196 107 244 129
231 17 -11 13 -86 -19 -327 -86 -642 -104 -1131 -48 -1255 20 -42 63 -49 333
-49 245 0 401 14 532 47 83 20 160 111 203 237 89 266 61 679 -85 1247 -50
192 -53 219 -29 253 26 36 61 22 245 -99 257 -170 407 -243 556 -269 105 -20
183 10 169 63 -9 37 -195 226 -361 369 -243 208 -275 237 -275 258 0 37 55 19
320 -107 146 -69 342 -159 435 -199 373 -160 688 -255 749 -227 49 22 152 303
211 570 14 64 28 127 30 140 l5 22 3215 0 3215 0 0 500 0 500 -3859 0 c-2709
0 -3862 3 -3866 11 -4 5 38 57 93 113 108 111 180 212 206 289 20 60 20 77 0
106 -22 30 -48 25 -181 -38 -112 -54 -223 -117 -442 -254 -161 -100 -199 -117
-211 -96 -14 22 13 60 162 215 197 207 317 338 438 479 201 235 364 472 377
549 5 31 1 39 -38 76 -124 117 -371 285 -570 388 -130 68 -184 75 -271 39z"/>
</g>
</svg>
